<?xml version="1.0" encoding="UTF-8" standalone="no"?>
<!-- Created with Inkscape (http://www.inkscape.org/) -->

<svg
   width="256mm"
   height="256mm"
   viewBox="0 0 256 256"
   version="1.1"
   id="svg22"
   inkscape:version="1.1.1 (3bf5ae0d25, 2021-09-20)"
   sodipodi:docname="day-planner-icon.svg"
   xmlns:inkscape="http://www.inkscape.org/namespaces/inkscape"
   xmlns:sodipodi="http://sodipodi.sourceforge.net/DTD/sodipodi-0.dtd"
   xmlns="http://www.w3.org/2000/svg"
   xmlns:svg="http://www.w3.org/2000/svg">
  <sodipodi:namedview
     id="namedview24"
     pagecolor="#ffffff"
     bordercolor="#666666"
     borderopacity="1.0"
     inkscape:pageshadow="2"
     inkscape:pageopacity="0.0"
     inkscape:pagecheckerboard="0"
     inkscape:document-units="mm"
     showgrid="false"
     inkscape:zoom="0.74118967"
     inkscape:cx="301.54225"
     inkscape:cy="532.25243"
     inkscape:window-width="1920"
     inkscape:window-height="1017"
     inkscape:window-x="1912"
     inkscape:window-y="-8"
     inkscape:window-maximized="1"
     inkscape:current-layer="layer1" />
  <defs
     id="defs19" />
  <g
     inkscape:label="Layer 1"
     inkscape:groupmode="layer"
     id="layer1">
    <circle
       id="path919"
       style="fill:#000000;stroke:none;stroke-width:0.264583"
       cx="311.63583"
       cy="43.193508"
       r="0.39687499" />
    <circle
       id="path921"
       style="fill:#000000;stroke:none;stroke-width:0.264583"
       cx="311.63583"
       cy="43.193508"
       r="0.39687499" />
    <circle
       id="path923"
       style="fill:#000000;stroke:none;stroke-width:0.264583"
       cx="311.63583"
       cy="43.193508"
       r="0.39687499" />
    <circle
       id="path925"
       style="fill:#000000;stroke:none;stroke-width:0.264583"
       cx="311.63583"
       cy="43.193508"
       r="0.39687499" />
    <circle
       id="path927"
       style="fill:#000000;stroke:none;stroke-width:0.264583"
       cx="311.63583"
       cy="43.193508"
       r="0.39687499" />
    <path
       style="fill:#000000;stroke-width:0.207838"
       d="m 66.157743,173.03043 -5.054161,-5.25062 2.001639,-2.34432 2.001638,-2.34433 0.832546,0.78862 c 0.4579,0.43375 2.043699,1.91303 3.523995,3.28728 l 2.691446,2.49863 8.62908,-7.3495 c 4.745993,-4.04223 8.733972,-7.43333 8.862174,-7.53576 0.157448,-0.12578 0.977502,0.75488 2.526753,2.71353 1.261511,1.59488 2.303966,3.01844 2.316572,3.16346 0.01256,0.14501 -0.711388,0.81385 -1.608873,1.48628 -0.897484,0.67247 -6.14008,4.57846 -11.650218,8.68001 l -10.018429,7.45735 z"
       id="path2661-9" />
    <rect
       style="fill:#000000;stroke-width:0.217856"
       id="rect1089"
       width="11.826943"
       height="20.665205"
       x="121.93126"
       y="4.7971916" />
    <rect
       style="fill:#000000;stroke-width:0.217856"
       id="rect1089-6"
       width="11.826943"
       height="20.665205"
       x="120.90115"
       y="234.03984" />
    <rect
       style="fill:#000000;stroke-width:0.217856"
       id="rect1089-5"
       width="12.279325"
       height="19.903879"
       x="121.27445"
       y="-253.12108"
       transform="rotate(90)" />
    <rect
       style="fill:#000000;stroke-width:0.217919"
       id="rect1089-5-2"
       width="11.95939"
       height="20.448175"
       x="179.22565"
       y="-92.471489"
       transform="matrix(0.83393373,0.5518646,-0.52317891,0.85222287,0,0)" />
    <rect
       style="fill:#000000;stroke-width:0.217916"
       id="rect1089-5-6"
       width="12.160728"
       height="20.109045"
       x="-199.21588"
       y="156.37393"
       transform="matrix(-0.50139895,-0.86521621,0.84811745,-0.52980826,0,0)"
       inkscape:transform-center-x="0.28494094"
       inkscape:transform-center-y="-1.0475939" />
    <rect
       style="fill:#000000;stroke-width:0.217919"
       id="rect1089-5-2-7-8"
       width="11.95939"
       height="20.448175"
       x="39.465698"
       y="-311.21313"
       transform="matrix(0.8339337,-0.55186465,-0.52317896,-0.85222284,0,0)" />
    <rect
       style="fill:#000000;stroke-width:0.217916"
       id="rect1089-5-6-4-6"
       width="12.160728"
       height="20.109045"
       x="25.542589"
       y="286.76166"
       transform="matrix(-0.50139895,0.86521621,0.84811745,0.52980826,0,0)"
       inkscape:transform-center-x="0.28493881"
       inkscape:transform-center-y="1.0475955" />
    <rect
       style="fill:#000000;stroke-width:0.217856"
       id="rect1089-5-7"
       width="12.279325"
       height="19.903879"
       x="122.42214"
       y="2.2964478"
       transform="matrix(0,1,1,0,0,0)" />
    <rect
       style="fill:#000000;stroke-width:0.217919"
       id="rect1089-5-2-8"
       width="11.95939"
       height="20.448175"
       x="-37.972282"
       y="49.52367"
       transform="matrix(-0.83393373,0.5518646,0.52317892,0.85222287,0,0)" />
    <rect
       style="fill:#000000;stroke-width:0.217916"
       id="rect1089-5-6-5"
       width="12.160728"
       height="20.109045"
       x="-64.793015"
       y="-65.314789"
       transform="matrix(0.50139895,-0.86521621,-0.84811745,-0.52980826,0,0)"
       inkscape:transform-center-x="-0.28494985"
       inkscape:transform-center-y="-1.0476024" />
    <rect
       style="fill:#000000;stroke-width:0.217919"
       id="rect1089-5-2-7-8-1"
       width="11.95939"
       height="20.448175"
       x="-178.93379"
       y="-171.13324"
       transform="matrix(-0.8339337,-0.55186465,0.52317896,-0.85222284,0,0)" />
    <rect
       style="fill:#000000;stroke-width:0.217916"
       id="rect1089-5-6-4-6-4"
       width="12.160728"
       height="20.109045"
       x="161.91325"
       y="66.224487"
       transform="matrix(0.50139895,0.86521621,-0.84811745,0.52980826,0,0)"
       inkscape:transform-center-x="-0.28492445"
       inkscape:transform-center-y="1.0476052" />
    <path
       style="fill:none;stroke:#000000;stroke-width:0.217856px;stroke-linecap:butt;stroke-linejoin:miter;stroke-opacity:1"
       d="M 58.469629,95.544392 C 68.854262,106.32624 68.854262,106.32624 68.854262,106.32624 L 92.796608,88.506237 87.604294,81.917328 69.863879,97.041863 62.79656,90.452965 Z"
       id="path2622" />
    <path
       style="fill:#000000;stroke-width:0.207837"
       d="m 63.874181,100.72802 -5.054161,-5.250626 2.001638,-2.34433 2.001641,-2.34433 0.832545,0.788635 c 0.4579,0.433749 2.043699,1.913014 3.523996,3.287263 l 2.691446,2.498641 8.629078,-7.349498 c 4.745993,-4.042231 8.733973,-7.433323 8.862175,-7.535762 0.157448,-0.125774 0.977502,0.75486 2.526753,2.713538 1.261509,1.594875 2.303967,3.018421 2.316571,3.163443 0.01256,0.14501 -0.711388,0.81384 -1.608873,1.486288 -0.897482,0.672461 -6.140078,4.578455 -11.650215,8.680001 l -10.018431,7.457367 z"
       id="path2661" />
    <path
       style="fill:#000000;stroke-width:0.207838"
       d="m 63.850047,135.59348 -5.054161,-5.25063 2.001639,-2.34433 2.001639,-2.34432 0.832545,0.78864 c 0.457902,0.43373 2.043699,1.913 3.523996,3.28726 l 2.691447,2.49863 8.629078,-7.3495 c 4.745993,-4.04223 8.733974,-7.43332 8.862174,-7.53576 0.15745,-0.12577 0.977502,0.75489 2.526753,2.71352 1.26151,1.59488 2.303967,3.01844 2.316571,3.16346 0.01256,0.14502 -0.711387,0.81385 -1.608872,1.48629 -0.897484,0.67246 -6.14008,4.57846 -11.650217,8.68001 l -10.01843,7.45737 z"
       id="path2661-1" />
    <path
       style="fill:#000000;stroke-width:0.146965"
       d="m 109.06724,94.274415 v -5.624019 l 1.18991,-4.43e-4 c 0.65445,-2.16e-4 4.3702,-0.06808 8.25722,-0.150512 3.88702,-0.08246 19.30173,-0.38214 34.25487,-0.665701 14.95315,-0.283561 28.33959,-0.552355 29.74764,-0.597336 l 2.56011,-0.08186 v 6.1388 6.138787 h -4.14796 c -5.8664,0 -50.07878,0.26852 -61.94591,0.37621 l -9.91588,0.09 z"
       id="path2930-6" />
    <path
       style="fill:#000000;stroke-width:0.146965"
       d="m 109.85202,130.6423 v -5.62401 l 1.1899,-4.5e-4 c 0.65445,-2.1e-4 4.37021,-0.0681 8.25722,-0.15052 3.88704,-0.0825 19.30172,-0.38213 34.25488,-0.66568 14.95314,-0.28356 28.33957,-0.55238 29.74765,-0.59736 l 2.5601,-0.0817 v 6.13879 6.13879 h -4.14797 c -5.8664,0 -50.07877,0.26852 -61.9459,0.37621 l -9.91588,0.09 z"
       id="path2930-9" />
    <path
       style="fill:#000000;stroke-width:0.146965"
       d="m 110.29237,169.09146 v -5.62401 l 1.1899,-4.4e-4 c 0.65445,-2.2e-4 4.37021,-0.0681 8.25722,-0.15054 3.88704,-0.0825 19.30172,-0.38212 34.25488,-0.66568 14.95314,-0.28355 28.33957,-0.55237 29.74765,-0.59735 l 2.5601,-0.0817 v 6.13879 6.13878 h -4.14797 c -5.8664,0 -50.07877,0.26852 -61.9459,0.37621 l -9.91588,0.09 z"
       id="path2930-3" />
    <path
       style="fill:none;stroke-width:0.504833"
       d="m 118.88828,222.11158 c -6.43965,-0.78644 -14.15096,-2.48239 -19.68851,-4.33009 -31.726613,-10.58614 -55.448493,-37.56311 -62.125407,-70.65017 -1.56832,-7.77173 -1.941906,-23.03436 -0.753946,-30.80205 6.096492,-39.862986 35.442617,-70.665256 74.770573,-78.48067 7.02513,-1.396063 20.71788,-1.899853 27.82157,-1.023625 16.41306,2.024526 31.58447,7.95056 44.087,17.22062 19.93858,14.783552 32.60908,35.109171 37.16299,59.615695 1.22024,6.56659 1.47166,20.19183 0.50738,27.49564 -5.3717,40.68712 -36.29448,73.01113 -76.53998,80.0083 -6.67421,1.1604 -19.53945,1.64273 -25.24167,0.94635 z M 83.125738,169.80435 c 6.014005,-4.51362 11.090301,-8.45859 11.280655,-8.7666 0.379169,-0.6135 -1.613902,-3.74298 -3.530518,-5.54355 l -1.212246,-1.13885 -7.887579,6.75089 c -4.338171,3.71298 -8.30408,7.04783 -8.813133,7.41076 -0.82256,0.58646 -1.294783,0.31448 -4.243805,-2.44418 -1.82504,-1.70723 -3.508116,-3.02647 -3.740169,-2.93163 -0.23205,0.0948 -1.296381,1.14899 -2.365179,2.34257 l -1.943269,2.17014 2.222042,2.37336 c 6.432008,6.87002 8.260792,8.6057 8.755139,8.30942 0.298929,-0.17916 5.464056,-4.01871 11.478062,-8.53233 z m 113.885512,1.58919 c 0.70153,-0.24826 0.94205,-12.15775 0.25242,-12.4985 -0.20825,-0.10289 -7.42105,-0.0281 -16.02847,0.1663 -8.6074,0.19436 -25.70233,0.52369 -37.98871,0.73186 l -22.33888,0.37849 -1.6e-4,5.86205 -1.5e-4,5.86205 37.73645,-0.13947 c 20.75505,-0.0767 38.02043,-0.23996 38.3675,-0.36278 z M 81.029031,132.22048 c 7.161564,-5.32181 11.484972,-8.85228 11.282468,-9.21321 -0.884997,-1.57735 -4.396123,-5.88591 -4.796541,-5.88591 -0.250637,0 -4.321156,3.31307 -9.045607,7.36237 l -8.589906,7.36237 -3.532725,-3.33258 -3.532722,-3.3326 -2.000451,2.31134 c -1.100249,1.27124 -2.000451,2.57743 -2.000451,2.90265 0,0.64683 9.583153,10.45362 10.215232,10.45362 0.214458,0 5.614775,-3.88262 12.000703,-8.62805 z m 104.832739,3.57972 h 11.78052 v -6.31042 -6.31042 l -4.16487,0.0136 c -3.16175,0.0103 -71.81956,1.41986 -72.4436,1.48724 -0.0694,0.007 -0.12621,2.66329 -0.12621,5.90177 v 5.88815 l 26.58681,-0.33498 c 14.62275,-0.18424 31.88806,-0.33498 38.36735,-0.33498 z M 80.629648,98.130126 c 6.187522,-4.614349 11.566472,-8.687287 11.953221,-9.050967 0.59432,-0.558866 0.294505,-1.174835 -1.936591,-3.978688 -1.451877,-1.824598 -2.855976,-3.317454 -3.120221,-3.317454 -0.264244,0 -4.337674,3.317933 -9.05207,7.373183 l -8.571627,7.373184 -3.54901,-3.347959 -3.549012,-3.347955 -2.248037,2.633641 c -1.236422,1.448507 -2.248038,2.870518 -2.248038,3.160035 0,0.589881 10.121683,10.892714 10.701197,10.892714 0.203584,0 5.432669,-3.77538 11.620188,-8.389734 z m 92.149602,3.847264 25.36788,-0.001 v -6.637317 -6.637311 l -22.84372,0.399777 c -12.56404,0.219879 -29.88614,0.537364 -38.49355,0.705525 l -15.64983,0.305742 -0.1424,6.265635 -0.1424,6.265629 13.26807,-0.3328 c 7.29743,-0.18305 24.68361,-0.33328 38.63595,-0.33384 z"
       id="path3575" />
    <path
       style="fill:none;stroke-width:0.504833"
       d="m 118.88828,222.11158 c -6.43965,-0.78644 -14.15096,-2.48239 -19.68851,-4.33009 -31.726613,-10.58614 -55.448493,-37.56311 -62.125407,-70.65017 -1.56832,-7.77173 -1.941906,-23.03436 -0.753946,-30.80205 6.096492,-39.862986 35.442617,-70.665256 74.770573,-78.48067 7.02513,-1.396063 20.71788,-1.899853 27.82157,-1.023625 16.41306,2.024526 31.58447,7.95056 44.087,17.22062 19.93858,14.783552 32.60908,35.109171 37.16299,59.615695 1.22024,6.56659 1.47166,20.19183 0.50738,27.49564 -5.3717,40.68712 -36.29448,73.01113 -76.53998,80.0083 -6.67421,1.1604 -19.53945,1.64273 -25.24167,0.94635 z M 83.125738,169.80435 c 6.014005,-4.51362 11.090301,-8.45859 11.280655,-8.7666 0.379169,-0.6135 -1.613902,-3.74298 -3.530518,-5.54355 l -1.212246,-1.13885 -7.887579,6.75089 c -4.338171,3.71298 -8.30408,7.04783 -8.813133,7.41076 -0.82256,0.58646 -1.294783,0.31448 -4.243805,-2.44418 -1.82504,-1.70723 -3.508116,-3.02647 -3.740169,-2.93163 -0.23205,0.0948 -1.296381,1.14899 -2.365179,2.34257 l -1.943269,2.17014 2.222042,2.37336 c 6.432008,6.87002 8.260792,8.6057 8.755139,8.30942 0.298929,-0.17916 5.464056,-4.01871 11.478062,-8.53233 z m 113.885512,1.58919 c 0.70153,-0.24826 0.94205,-12.15775 0.25242,-12.4985 -0.20825,-0.10289 -7.42105,-0.0281 -16.02847,0.1663 -8.6074,0.19436 -25.70233,0.52369 -37.98871,0.73186 l -22.33888,0.37849 -1.6e-4,5.86205 -1.5e-4,5.86205 37.73645,-0.13947 c 20.75505,-0.0767 38.02043,-0.23996 38.3675,-0.36278 z M 81.029031,132.22048 c 7.161564,-5.32181 11.484972,-8.85228 11.282468,-9.21321 -0.884997,-1.57735 -4.396123,-5.88591 -4.796541,-5.88591 -0.250637,0 -4.321156,3.31307 -9.045607,7.36237 l -8.589906,7.36237 -3.532725,-3.33258 -3.532722,-3.3326 -2.000451,2.31134 c -1.100249,1.27124 -2.000451,2.57743 -2.000451,2.90265 0,0.64683 9.583153,10.45362 10.215232,10.45362 0.214458,0 5.614775,-3.88262 12.000703,-8.62805 z m 104.832739,3.57972 h 11.78052 v -6.31042 -6.31042 l -4.16487,0.0136 c -3.16175,0.0103 -71.81956,1.41986 -72.4436,1.48724 -0.0694,0.007 -0.12621,2.66329 -0.12621,5.90177 v 5.88815 l 26.58681,-0.33498 c 14.62275,-0.18424 31.88806,-0.33498 38.36735,-0.33498 z M 80.629648,98.130126 c 6.187522,-4.614349 11.566472,-8.687287 11.953221,-9.050967 0.59432,-0.558866 0.294505,-1.174835 -1.936591,-3.978688 -1.451877,-1.824598 -2.855976,-3.317454 -3.120221,-3.317454 -0.264244,0 -4.337674,3.317933 -9.05207,7.373183 l -8.571627,7.373184 -3.54901,-3.347959 -3.549012,-3.347955 -2.248037,2.633641 c -1.236422,1.448507 -2.248038,2.870518 -2.248038,3.160035 0,0.589881 10.121683,10.892714 10.701197,10.892714 0.203584,0 5.432669,-3.77538 11.620188,-8.389734 z m 92.149602,3.847264 25.36788,-0.001 v -6.637317 -6.637311 l -22.84372,0.399777 c -12.56404,0.219879 -29.88614,0.537364 -38.49355,0.705525 l -15.64983,0.305742 -0.1424,6.265635 -0.1424,6.265629 13.26807,-0.3328 c 7.29743,-0.18305 24.68361,-0.33328 38.63595,-0.33384 z"
       id="path3647" />
    <g
       id="g8"
       transform="matrix(10.309086,0,0,-10.034724,2.1897177,247.32684)">
      <path
         d="M 12,2 C 6.47,2 2,6.47 2,12 2,17.53 6.47,22 12,22 17.53,22 22,17.53 22,12 22,6.47 17.53,2 12,2 Z m 0,18 C 7.58,20 4,16.42 4,12 4,7.58 7.58,4 12,4 c 4.42,0 8,3.58 8,8 0,4.42 -3.58,8 -8,8 z"
         id="path6" />
    </g>
  </g>
</svg>
