<?xml version="1.0" standalone="no"?>
<!DOCTYPE svg PUBLIC "-//W3C//DTD SVG 20010904//EN"
 "http://www.w3.org/TR/2001/REC-SVG-20010904/DTD/svg10.dtd">
<svg version="1.0" xmlns="http://www.w3.org/2000/svg"
 width="206.000000pt" height="206.000000pt" viewBox="0 0 206.000000 206.000000"
 preserveAspectRatio="xMidYMid meet">

<g transform="translate(0.000000,206.000000) scale(0.100000,-0.100000)"
fill="#000000" stroke="none">
<path d="M940 1990 l0 -70 70 0 70 0 0 39 c0 21 -3 53 -6 70 -6 31 -7 31 -70
31 l-64 0 0 -70z"/>
<path d="M1481 1978 c-52 -53 -61 -67 -59 -93 3 -28 6 -30 47 -33 42 -3 47 -1
108 60 52 51 63 68 63 95 0 33 0 33 -48 33 -46 0 -52 -3 -111 -62z"/>
<path d="M310 1997 c0 -27 11 -44 63 -95 63 -62 65 -63 113 -60 44 3 49 6 52
28 2 19 -13 42 -60 93 -62 67 -63 67 -115 67 l-53 0 0 -33z"/>
<path d="M812 1860 c-234 -47 -447 -215 -552 -435 -52 -108 -70 -185 -77 -336
-13 -291 57 -488 237 -667 86 -86 167 -138 282 -182 98 -38 150 -45 328 -45
178 0 230 7 328 45 115 44 196 96 282 182 180 179 250 376 237 667 -7 151 -25
228 -77 336 -107 224 -319 389 -560 435 -129 26 -300 25 -428 0z m372 -115
c203 -59 358 -173 469 -346 43 -67 62 -110 93 -213 44 -145 26 -281 -59 -453
-98 -201 -298 -360 -518 -415 -105 -26 -172 -26 -275 -1 -223 56 -422 215
-521 416 -103 207 -107 362 -18 571 87 204 284 371 517 440 111 33 200 33 312
1z"/>
<path d="M660 1523 c-47 -42 -50 -89 -12 -166 17 -34 43 -75 57 -92 l25 -30
31 35 c118 134 99 280 -35 280 -25 0 -45 -8 -66 -27z m125 -28 c17 -16 25 -35
25 -57 0 -32 -48 -130 -70 -143 -24 -15 -96 120 -86 160 16 62 87 84 131 40z"/>
<path d="M700 1465 c-10 -12 -10 -21 -1 -41 13 -29 47 -30 65 -1 23 37 -36 76
-64 42z"/>
<path d="M700 1175 c0 -32 2 -35 30 -35 28 0 30 3 30 35 0 32 -2 35 -30 35
-28 0 -30 -3 -30 -35z"/>
<path d="M1360 1183 c-47 -43 -50 -89 -11 -166 17 -34 42 -75 56 -92 25 -30
25 -30 44 -10 11 11 36 47 55 79 48 80 50 143 7 187 -41 40 -107 41 -151 2z
m127 -25 c34 -31 30 -82 -9 -148 -18 -29 -38 -55 -43 -57 -6 -2 -26 22 -45 54
-43 70 -47 125 -11 154 31 25 79 24 108 -3z"/>
<path d="M1400 1125 c-28 -34 26 -84 57 -52 23 23 9 67 -21 67 -13 0 -29 -7
-36 -15z"/>
<path d="M910 1085 c0 -14 0 -28 0 -32 0 -5 12 -8 28 -8 23 0 27 4 30 33 3 30
1 32 -27 32 -26 0 -31 -4 -31 -25z"/>
<path d="M1070 1000 c0 -28 3 -30 35 -30 32 0 35 2 35 30 0 28 -3 30 -35 30
-32 0 -35 -2 -35 -30z"/>
<path d="M1240 925 c0 -32 2 -35 30 -35 28 0 30 3 30 35 0 32 -2 35 -30 35
-28 0 -30 -3 -30 -35z"/>
<path d="M1404 856 c-12 -31 0 -51 31 -51 27 0 30 4 33 33 3 30 1 32 -28 32
-17 0 -33 -6 -36 -14z"/>
<path d="M744 786 c-90 -39 -83 -158 16 -276 l29 -35 26 30 c37 45 85 144 85
177 0 43 -25 83 -64 102 -41 19 -51 19 -92 2z m106 -53 c16 -21 20 -37 16 -62
-5 -34 -64 -141 -77 -141 -16 0 -71 103 -76 140 -5 33 -2 45 17 65 34 36 91
35 120 -2z"/>
<path d="M756 704 c-10 -27 -7 -43 13 -54 11 -5 26 -7 35 -4 21 8 30 42 16 59
-16 20 -56 19 -64 -1z"/>
<path d="M1252 708 c3 -29 6 -33 33 -33 27 0 30 3 30 30 0 27 -4 30 -33 33
-32 3 -33 2 -30 -30z"/>
<path d="M1090 580 c0 -27 3 -30 30 -30 27 0 30 3 30 30 0 27 -3 30 -30 30
-27 0 -30 -3 -30 -30z"/>
<path d="M930 465 c0 -32 2 -35 30 -35 28 0 30 3 30 35 0 32 -2 35 -30 35 -28
0 -30 -3 -30 -35z"/>
<path d="M760 415 c0 -35 1 -36 32 -33 28 3 32 7 32 33 0 26 -4 30 -32 33 -31
3 -32 2 -32 -33z"/>
<path d="M0 1622 c0 -50 2 -54 74 -110 21 -16 42 -22 77 -22 49 0 49 0 49 34
0 29 -8 40 -70 90 -50 40 -79 56 -100 56 -29 0 -30 -1 -30 -48z"/>
<path d="M1898 1587 c-61 -38 -68 -45 -68 -74 l0 -33 53 1 c42 0 63 7 112 38
54 34 60 41 63 74 l3 37 -48 0 c-39 0 -61 -8 -115 -43z"/>
<path d="M1927 1123 c-4 -3 -7 -28 -7 -55 l0 -48 70 0 70 0 0 55 0 55 -63 0
c-35 0 -67 -3 -70 -7z"/>
<path d="M0 1050 l0 -60 59 0 c58 0 59 1 65 31 3 17 6 44 6 60 0 29 0 29 -65
29 l-65 0 0 -60z"/>
<path d="M78 479 c-59 -53 -68 -66 -68 -95 l0 -34 50 0 c47 0 53 3 115 62 54
52 65 68 65 95 0 33 0 33 -47 33 -45 0 -53 -5 -115 -61z"/>
<path d="M1810 503 c0 -34 7 -44 64 -95 61 -54 68 -58 115 -58 l51 0 0 34 c0
28 -9 41 -57 82 -84 73 -85 73 -130 74 l-43 0 0 -37z"/>
<path d="M411 174 c-70 -66 -81 -81 -81 -110 0 -34 0 -34 48 -34 44 0 51 5
125 71 71 65 77 74 77 110 l0 39 -44 0 c-42 0 -50 -5 -125 -76z"/>
<path d="M1460 218 c1 -26 13 -47 58 -95 54 -59 60 -62 106 -65 l50 -2 0 34
c0 26 -12 47 -55 96 -53 63 -55 63 -106 64 l-53 0 0 -32z"/>
<path d="M965 118 c-2 -7 -5 -37 -7 -66 l-3 -52 73 0 72 0 0 59 c0 67 -4 71
-81 71 -31 0 -51 -5 -54 -12z"/>
</g>
</svg>
