<?xml version="1.0" encoding="UTF-8" standalone="no"?>
<svg
   enable-background="new 0 0 24 24"
   height="24px"
   viewBox="0 0 24 24"
   width="24px"
   fill="#000000"
   version="1.1"
   id="svg14"
   sodipodi:docname="habit-tracker-icon'.svg"
   inkscape:version="1.1.1 (3bf5ae0d25, 2021-09-20)"
   xmlns:inkscape="http://www.inkscape.org/namespaces/inkscape"
   xmlns:sodipodi="http://sodipodi.sourceforge.net/DTD/sodipodi-0.dtd"
   xmlns="http://www.w3.org/2000/svg"
   xmlns:svg="http://www.w3.org/2000/svg">
  <defs
     id="defs18" />
  <sodipodi:namedview
     id="namedview16"
     pagecolor="#ffffff"
     bordercolor="#666666"
     borderopacity="1.0"
     inkscape:pageshadow="2"
     inkscape:pageopacity="0.0"
     inkscape:pagecheckerboard="0"
     showgrid="false"
     inkscape:zoom="24.513035"
     inkscape:cx="30.49398"
     inkscape:cy="9.2807765"
     inkscape:window-width="1920"
     inkscape:window-height="1017"
     inkscape:window-x="1912"
     inkscape:window-y="-8"
     inkscape:window-maximized="1"
     inkscape:current-layer="svg14" />
  <g
     id="g4">
    <rect
       fill="none"
       height="24"
       width="24"
       id="rect2" />
  </g>
  <g
     id="g12">
    <g
       id="g10">
      <path
         d="M19.94,9.06c-0.43-3.27-3.23-5.86-6.53-6.05C13.27,3,13.14,3,13,3C9.47,3,6.57,5.61,6.08,9l-1.93,3.48 C3.74,13.14,4.22,14,5,14h1v2c0,1.1,0.9,2,2,2h1v3h7v-4.68C18.62,15.07,20.35,12.24,19.94,9.06z M14.89,14.63L14,15.05V19h-3v-3H8 v-4H6.7l1.33-2.33C8.21,7.06,10.35,5,13,5c2.76,0,5,2.24,5,5C18,12.09,16.71,13.88,14.89,14.63z"
         id="path8" />
    </g>
  </g>
  <rect
     style="fill:#ffffff;fill-opacity:0"
     id="rect42"
     width="5.0904827"
     height="5.9956417"
     x="9.729517"
     y="6.3843584" />
  <rect
     style="fill:#ffffff;fill-opacity:0"
     id="rect44"
     width="0.16317849"
     height="2.488472"
     x="12.891101"
     y="8.5056791" />
  <path
     d="m 16.32206,9.7979975 c 0.167454,0 0.304463,-0.109031 0.304463,-0.242293 0,-0.13326 -0.137009,-0.242293 -0.304463,-0.242293 -0.167454,0 -0.304462,0.10903 -0.304462,0.242293 0,0.13326 0.137008,0.242293 0.304462,0.242293 z m -0.548032,1.6839325 0.152231,-0.533044 0.319686,0.242293 v 0.726877 h 0.304462 V 11.00946 l -0.319686,-0.242294 0.09134,-0.363438 c 0.197901,0.18172 0.502364,0.302865 0.837272,0.302865 V 10.4643 c -0.289239,0 -0.532809,-0.121147 -0.654595,-0.290751 L 16.352507,9.9797162 c -0.06089,-0.072686 -0.152231,-0.1211467 -0.258793,-0.1211467 -0.04567,0 -0.07611,0.012104 -0.121785,0.012104 l -0.791603,0.2665355 v 0.569387 h 0.304462 v -0.411897 l 0.274016,-0.0848 -0.24357,0.981284 -0.745933,-0.121147 -0.06089,0.242293 z"
     id="path4"
     style="stroke-width:0.135802" />
  <path
     d="m 12.891101,6.5509276 c -0.161067,-0.050679 -0.338094,-0.072398 -0.507867,-0.072398 -0.282955,0 -0.587675,0.057919 -0.798077,0.2171946 C 11.374755,6.536448 11.070035,6.4785294 10.78708,6.4785294 c -0.282954,0 -0.587674,0.057919 -0.7980765,0.2171946 v 2.1212673 c 0,0.036199 0.036275,0.072398 0.072551,0.072398 0.01451,0 0.02177,-0.00724 0.03628,-0.00724 0.195892,-0.094118 0.478846,-0.159276 0.689249,-0.159276 0.282954,0 0.587674,0.057918 0.798076,0.2171946 0.195892,-0.123077 0.551399,-0.2171946 0.798077,-0.2171946 0.239423,0 0.486101,0.043439 0.689248,0.1520362 0.01451,0.00724 0.02177,0.00724 0.03628,0.00724 0.03628,0 0.07255,-0.036199 0.07255,-0.072398 V 6.695724 C 13.094248,6.6305656 12.99993,6.5871267 12.891101,6.5509276 Z m 0,1.9547515 c -0.159615,-0.050679 -0.333741,-0.072398 -0.507867,-0.072398 -0.246678,0 -0.602185,0.094118 -0.798077,0.2171946 V 6.9853168 c 0.195892,-0.1230769 0.551399,-0.2171946 0.798077,-0.2171946 0.174126,0 0.348252,0.02172 0.507867,0.072398 z"
     id="path8-0"
     style="stroke-width:0.144951" />
  <path
     d="m 12.171158,14.509905 0.271505,-0.236841 -0.271505,-0.23684 -0.677811,0.591272 L 9.8662186,13.208112 10.54403,12.61684 10.272526,12.38 10.001021,12.61684 9.729517,12.38 9.3232096,12.734432 9.0517052,12.497591 l -0.2715045,0.236841 0.2715045,0.236839 -0.4063074,0.354433 0.2715045,0.23684 -0.2715045,0.23684 0.2715045,0.23684 0.6778118,-0.591272 1.6271279,1.419384 -0.677812,0.591272 0.271504,0.236841 0.271505,-0.236841 0.271504,0.236841 0.406308,-0.354432 0.271505,0.23684 0.271503,-0.23684 -0.271503,-0.236841 0.406307,-0.354431 z"
     id="path4-8"
     style="stroke-width:0.177329" />
  <path
     style="fill:none;stroke:#000000;stroke-width:0.480668px;stroke-linecap:butt;stroke-linejoin:miter;stroke-opacity:1"
     d="m 11.839882,9.6883367 c 0.145211,0.1350422 0.13916,0.1270977 0.13916,0.1270977 L 12.142404,9.6962797 11.948789,9.5215198 Z"
     id="path402" />
  <path
     style="fill:none;stroke:#000000;stroke-width:0.480668px;stroke-linecap:butt;stroke-linejoin:miter;stroke-opacity:1"
     d="m 13.054279,10.994151 c 0.145211,0.135043 0.13916,0.127098 0.13916,0.127098 l 0.163362,-0.119155 -0.193615,-0.174759 z"
     id="path402-8" />
  <path
     style="fill:none;stroke:#000000;stroke-width:0.480668px;stroke-linecap:butt;stroke-linejoin:miter;stroke-opacity:1"
     d="m 14.82,12.38 c 0.145211,0.135043 0.13916,0.127098 0.13916,0.127098 l 0.163362,-0.119155 -0.193615,-0.174759 z"
     id="path402-8-0" />
  <path
     style="fill:none;stroke:#000000;stroke-width:0.480668px;stroke-linecap:butt;stroke-linejoin:miter;stroke-opacity:1"
     d="m 13.761483,13.527982 c 0.145211,0.135043 0.13916,0.127098 0.13916,0.127098 l 0.163362,-0.119155 -0.193615,-0.174759 z"
     id="path402-8-1" />
  <path
     style="fill:none;stroke:#000000;stroke-width:0.480668px;stroke-linecap:butt;stroke-linejoin:miter;stroke-opacity:1"
     d="m 12.852829,14.609713 c 0.145211,0.135043 0.13916,0.127098 0.13916,0.127098 l 0.163362,-0.119155 -0.193615,-0.174759 z"
     id="path402-8-14" />
</svg>
